<mxfile host="app.diagrams.net" modified="2023-11-23T18:32:50.567Z" agent="Mozilla/5.0 (Windows NT 10.0; Win64; x64) AppleWebKit/537.36 (KHTML, like Gecko) Chrome/119.0.0.0 Safari/537.36 Edg/119.0.0.0" etag="kVxPQumBXOKkKIICRYAK" version="22.1.3" type="github">
  <diagram name="PÃ¡gina-1" id="aMsBlDd1dO-YEsa1hrWV">
    <mxGraphModel dx="1002" dy="535" grid="1" gridSize="10" guides="1" tooltips="1" connect="1" arrows="1" fold="1" page="1" pageScale="1" pageWidth="827" pageHeight="1169" math="0" shadow="0">
      <root>
        <mxCell id="0" />
        <mxCell id="1" parent="0" />
        <mxCell id="Cupz4t88Cv5a_EPzGhlt-1" value="&lt;b&gt;PERSONA&lt;/b&gt;" style="swimlane;childLayout=stackLayout;horizontal=1;startSize=50;horizontalStack=0;rounded=1;fontSize=14;fontStyle=0;strokeWidth=2;resizeParent=0;resizeLast=1;shadow=0;dashed=0;align=center;arcSize=4;whiteSpace=wrap;html=1;fillColor=#f8cecc;strokeColor=#b85450;" vertex="1" parent="1">
          <mxGeometry x="40" y="80" width="110" height="120" as="geometry" />
        </mxCell>
        <mxCell id="Cupz4t88Cv5a_EPzGhlt-2" value="&lt;b&gt;P. dni&lt;br&gt;&lt;/b&gt;nombre&lt;br&gt;prApellido&lt;br&gt;sgApellido" style="align=left;strokeColor=#666666;fillColor=#f5f5f5;spacingLeft=4;fontSize=12;verticalAlign=top;resizable=0;rotatable=0;part=1;html=1;fontColor=#333333;" vertex="1" parent="Cupz4t88Cv5a_EPzGhlt-1">
          <mxGeometry y="50" width="110" height="70" as="geometry" />
        </mxCell>
        <mxCell id="Cupz4t88Cv5a_EPzGhlt-3" value="&lt;b&gt;ESCALA&lt;/b&gt;" style="swimlane;childLayout=stackLayout;horizontal=1;startSize=50;horizontalStack=0;rounded=1;fontSize=14;fontStyle=0;strokeWidth=2;resizeParent=0;resizeLast=1;shadow=0;dashed=0;align=center;arcSize=4;whiteSpace=wrap;html=1;fillColor=#f8cecc;strokeColor=#b85450;" vertex="1" parent="1">
          <mxGeometry x="280" y="80" width="110" height="120" as="geometry" />
        </mxCell>
        <mxCell id="Cupz4t88Cv5a_EPzGhlt-4" value="&lt;b&gt;P.codEscala&lt;br&gt;&lt;/b&gt;nombreEscala&lt;br&gt;sueldoBaseEscala" style="align=left;strokeColor=#666666;fillColor=#f5f5f5;spacingLeft=4;fontSize=12;verticalAlign=top;resizable=0;rotatable=0;part=1;html=1;fontColor=#333333;" vertex="1" parent="Cupz4t88Cv5a_EPzGhlt-3">
          <mxGeometry y="50" width="110" height="70" as="geometry" />
        </mxCell>
        <mxCell id="Cupz4t88Cv5a_EPzGhlt-6" value="&lt;b&gt;EMPLEO&lt;/b&gt;" style="swimlane;childLayout=stackLayout;horizontal=1;startSize=50;horizontalStack=0;rounded=1;fontSize=14;fontStyle=0;strokeWidth=2;resizeParent=0;resizeLast=1;shadow=0;dashed=1;align=center;arcSize=4;whiteSpace=wrap;html=1;fillColor=#f8cecc;strokeColor=#b85450;swimlaneLine=1;" vertex="1" parent="1">
          <mxGeometry x="520" y="80" width="110" height="120" as="geometry" />
        </mxCell>
        <mxCell id="Cupz4t88Cv5a_EPzGhlt-7" value="&lt;b&gt;P.codEmpleo&lt;br&gt;&lt;/b&gt;nombreEmpleo&lt;br&gt;complemento" style="align=left;strokeColor=#666666;fillColor=#f5f5f5;spacingLeft=4;fontSize=12;verticalAlign=top;resizable=0;rotatable=0;part=1;html=1;fontColor=#333333;" vertex="1" parent="Cupz4t88Cv5a_EPzGhlt-6">
          <mxGeometry y="50" width="110" height="70" as="geometry" />
        </mxCell>
      </root>
    </mxGraphModel>
  </diagram>
</mxfile>
